<?xml version="1.0" encoding="utf-8"?>
<!-- Generator: Adobe Illustrator 28.1.0, SVG Export Plug-In . SVG Version: 6.00 Build 0)  -->
<svg version="1.1" id="Camada_1" xmlns="http://www.w3.org/2000/svg" xmlns:xlink="http://www.w3.org/1999/xlink" x="0px" y="0px"
	 viewBox="0 0 500 500" style="enable-background:new 0 0 500 500;" xml:space="preserve">
<style type="text/css">
	.st0{fill:#EBEBEB;}
	.st1{fill:#E0E0E0;}
	.st2{fill:#F0F0F0;}
	.st3{fill:#FFFFFF;}
	.st4{fill:#FAFAFA;}
	.st5{fill:#F2C911;}
	.st6{opacity:0.3;}
	.st7{opacity:0.1;enable-background:new    ;}
	.st8{opacity:0.1;}
	.st9{opacity:0.2;}
	.st10{fill:#455A64;}
	.st11{fill:#F5F5F5;}
	.st12{fill:#B78876;}
	.st13{fill:#A36957;}
</style>
<g>
	<g id="freepik--background-complete--inject-96">
		<path class="st0" d="M206.6,68l-95.2,123.7l256-63.6L224.9,63.4C218.5,60.5,210.9,62.4,206.6,68z"/>
		<path class="st1" d="M110.1,192.6l96.1-124.9c4.4-5.8,12.3-7.7,18.9-4.7l144,65.2L110.1,192.6z M218.6,62.6
			c-4.5,0-8.8,2.1-11.5,5.7l0,0l-94.3,122.5l253.1-62.9l-141.2-64C222.7,63,220.7,62.6,218.6,62.6L218.6,62.6z"/>
		<path class="st2" d="M111.4,191.7l256.9-63.9l0,0L402.9,267c1.4,5.7-2.1,11.6-7.8,13L159,338.7c-5.7,1.4-11.6-2.1-13-7.8
			L111.4,191.7L111.4,191.7z"/>
		<path class="st3" d="M352.5,135.4l-89,90.9L129,196.1l-15.4-71.3c-1.8-7.7,2.9-15.3,10.6-17.2l194.6-48.4
			c7.7-1.9,15.5,2.8,17.4,10.5c0,0,0,0,0,0L352.5,135.4z"/>
		<path class="st1" d="M251.3,219.2L145.6,329.7l0,0c1.6,6.3,8,10.2,14.3,8.6c0,0,0,0,0,0L394.2,280c6.3-1.6,10.2-8,8.6-14.3
			l-0.2-0.9l-138.2-48.8C259.8,214.5,254.7,215.7,251.3,219.2z"/>
		
			<rect x="141.2" y="127.4" transform="matrix(0.9704 -0.2414 0.2414 0.9704 -26.3872 47.4464)" class="st1" width="78.4" height="8"/>
		
			<rect x="144.8" y="135.6" transform="matrix(0.9704 -0.2414 0.2414 0.9704 -26.9598 60.1158)" class="st1" width="174.1" height="9.1"/>
		
			<rect x="150.2" y="157" transform="matrix(0.9704 -0.2414 0.2414 0.9704 -31.9816 62.0402)" class="st1" width="174.1" height="9.1"/>
		<polygon class="st1" points="324.1,164.6 318.8,169.9 177,206.9 158.5,202.6 157.8,200.6 326.2,158.7 326.9,161.6 		"/>
		<polygon class="st1" points="287.8,201.5 224,217.4 204.4,212.9 299.9,189.2 		"/>
		<path class="st4" d="M247.4,223.2c0,0-0.1,0.1-0.2,0.3l-0.8,0.8l-2.9,3.1l-10.9,11.5c-9.2,9.7-22,23.1-36.2,37.8
			s-27.1,27.9-36.6,37.4c-4.7,4.7-8.6,8.5-11.3,11.2l-3.1,3l-0.8,0.8c-0.1,0.1-0.2,0.2-0.3,0.2c0.1-0.1,0.2-0.2,0.2-0.3l0.8-0.8
			l3-3.1l11.2-11.3c9.4-9.5,22.3-22.8,36.5-37.5s27-28,36.2-37.7l11-11.4l3-3.1l0.8-0.8C247.3,223.3,247.4,223.2,247.4,223.2z"/>
		<path class="st4" d="M402.6,264.8c0,0.1-29.5-10.1-65.8-22.9s-65.7-23.2-65.6-23.4s29.5,10.1,65.8,22.8S402.6,264.7,402.6,264.8z"
			/>
		<path class="st4" d="M356.8,131.1c-0.1,0.1-0.1,0.2-0.2,0.2L356,132l-2.4,2.6l-8.8,9.6c-7.5,8.1-17.9,19.1-29.6,31.2
			s-22.5,22.8-30.3,30.6l-9.3,9.1l-2.6,2.4l-0.7,0.6c-0.2,0.1-0.2,0.2-0.2,0.2c0.1-0.1,0.1-0.2,0.2-0.2l0.6-0.7l2.5-2.5l9.2-9.2
			c7.8-7.8,18.4-18.6,30.1-30.7s22.1-23,29.7-31l9-9.5l2.5-2.6l0.6-0.7C356.6,131.2,356.7,131.1,356.8,131.1z"/>
		<path class="st4" d="M247.4,223.2c-0.1,0-0.2,0-0.4-0.1l-1-0.2l-4-1c-3.4-0.9-8.4-2.1-14.5-3.5c-12.3-2.9-29.3-6.7-48.2-10.7
			s-35.9-7.9-48.1-10.9c-6.1-1.5-11.1-2.8-14.5-3.7l-3.9-1.1l-1-0.3c-0.1,0-0.2-0.1-0.3-0.1l0.3,0.1l1,0.2l4,1
			c3.4,0.9,8.4,2.1,14.5,3.5c12.3,2.9,29.3,6.7,48.2,10.7s35.9,7.9,48.1,10.9c6.1,1.5,11.1,2.8,14.5,3.7l3.9,1.1l1,0.3L247.4,223.2z
			"/>
		<path class="st1" d="M352.5,135.4c0,0-0.1-0.3-0.3-1l-0.7-2.8c-0.6-2.5-1.6-6.2-2.8-10.9l-10.1-40.1c-0.5-2.1-1.1-4.3-1.6-6.5
			c-0.3-1.1-0.5-2.2-0.8-3.4c-0.1-0.6-0.3-1.1-0.5-1.7c-0.2-0.6-0.4-1.1-0.6-1.6c-2-4.6-6.3-7.7-11.2-8.3c-1.3-0.2-2.5-0.2-3.8,0
			c-1.3,0.2-2.5,0.6-3.8,0.9l-7.9,2L292,66l-72.9,18.2l-73,18.1l-16.4,4.1l-4,1c-1.3,0.3-2.6,0.7-3.8,1.2c-2.4,1-4.4,2.7-5.9,4.8
			c-0.7,1-1.3,2.1-1.8,3.3c-0.4,1.2-0.7,2.4-0.8,3.6c-0.3,2.4,0.4,4.8,0.9,7.1c1,4.7,2,9.1,2.9,13.4c3.7,17.1,6.6,30.9,8.6,40.5
			c1,4.8,1.8,8.5,2.3,11c0.2,1.2,0.5,2.2,0.6,2.9c0.1,0.7,0.2,1,0.2,1s-0.1-0.3-0.2-1c-0.1-0.7-0.4-1.6-0.6-2.9
			c-0.6-2.5-1.4-6.2-2.4-11c-2.1-9.6-5.1-23.4-8.8-40.4c-0.9-4.3-1.9-8.7-2.9-13.4c-0.5-2.3-1.2-4.7-0.9-7.3
			c0.1-1.3,0.4-2.5,0.8-3.7c0.5-1.2,1.1-2.4,1.8-3.4c0.8-1.1,1.7-2,2.7-2.9c1-0.9,2.2-1.6,3.4-2.1c1.3-0.5,2.5-0.9,3.9-1.2l4-1
			l16.4-4.1l73-18.2l73-18.1l16.4-4.1l7.9-1.9c1.3-0.3,2.5-0.7,3.9-0.9c3.9-0.6,7.9,0.4,11,2.8c2,1.5,3.5,3.5,4.5,5.7
			c0.3,0.5,0.5,1.1,0.6,1.7c0.2,0.6,0.3,1.1,0.5,1.7c0.3,1.1,0.5,2.3,0.8,3.4c0.5,2.2,1.1,4.4,1.6,6.5l9.9,40.2
			c1.1,4.7,2,8.4,2.7,10.9c0.3,1.2,0.5,2.2,0.7,2.9S352.5,135.4,352.5,135.4z"/>
	</g>
	<g id="freepik--Floor--inject-96">
		<path d="M453,449c0,0.1-90.4,0.3-202,0.3S49,449.2,49,449s90.4-0.3,202-0.3S453,448.9,453,449z"/>
	</g>
	<g id="freepik--mail-sent--inject-96">
		<polygon class="st5" points="240.7,82.7 230.8,90.2 231.3,104.6 222.2,97.4 217.2,101.7 198.2,78.2 		"/>
		<path class="st5" d="M227.1,93.2c0,0.4,4.2,11.3,4.2,11.3l-9.1-7.2L227.1,93.2z"/>
		<g class="st6">
			<path d="M227.1,93.2c0,0.4,4.2,11.3,4.2,11.3l-9.1-7.2L227.1,93.2z"/>
		</g>
		<polygon class="st5" points="198.2,78.2 227.1,93.2 231.3,104.6 230.8,90.2 		"/>
		<polygon class="st7" points="198.2,78.2 227.1,93.2 231.3,104.6 230.8,90.2 		"/>
		<path d="M278.2,272.2c-1.8-0.1-3.5-0.5-5.1-1.2C274.9,271,276.6,271.5,278.2,272.2z"/>
		<path d="M286.4,274.2c0,0.1-0.8,0.1-1.6-0.1s-1.5-0.5-1.5-0.6s0.8-0.1,1.6,0.1S286.5,274.1,286.4,274.2z"/>
		<path d="M252.7,102.7c-0.9,0-1.8-0.1-2.6-0.4c-0.9-0.1-1.7-0.4-2.5-0.8c0.9-0.1,1.8,0,2.6,0.3
			C251.1,101.9,251.9,102.2,252.7,102.7z"/>
		<path d="M262.4,106.8c-1.7-0.6-3.3-1.3-4.7-2.4c0.9,0.1,1.8,0.4,2.5,0.9C261.5,106,262.4,106.7,262.4,106.8z"/>
		<path d="M270.7,113.2c-0.1,0.1-1-0.6-2.1-1.6s-2-1.7-1.9-1.9c0.9,0.3,1.6,0.8,2.2,1.5C270.1,112.2,270.9,113.1,270.7,113.2z"/>
		<path d="M277.1,121.6c-0.1,0.1-0.8-0.9-1.6-2.1c-0.6-0.7-1-1.5-1.3-2.3c0.1-0.1,1,0.8,1.8,2C276.6,119.8,277,120.7,277.1,121.6z"
			/>
		<path d="M280.8,131.4c-0.4-0.8-0.7-1.6-0.9-2.5c-0.3-0.8-0.5-1.7-0.5-2.6c0.5,0.7,0.9,1.6,1.1,2.4
			C280.7,129.6,280.9,130.5,280.8,131.4z"/>
		<path d="M281.3,141.9c-0.2-0.9-0.2-1.8-0.1-2.6c-0.1-0.9,0-1.8,0.2-2.6c0.3,0.8,0.4,1.7,0.3,2.6
			C281.8,140.2,281.7,141.1,281.3,141.9z"/>
		<path d="M278.6,152.1c0.1-0.9,0.4-1.7,0.7-2.5c0.2-0.9,0.5-1.7,1-2.4c0,0.9-0.1,1.8-0.5,2.6C279.6,150.6,279.2,151.4,278.6,152.1z
			"/>
		<path d="M272.5,160.6c-0.1-0.1,0.7-1,1.6-2.1s1.7-2,1.8-1.9c-0.3,0.9-0.8,1.6-1.4,2.2C273.5,160,272.6,160.7,272.5,160.6z"/>
		<path d="M263.6,166.3c0.7-0.6,1.4-1,2.3-1.4c0.7-0.5,1.6-0.9,2.4-1.1c-0.6,0.7-1.3,1.2-2.2,1.6
			C265.4,165.9,264.5,166.2,263.6,166.3z"/>
		<path d="M253.4,168.5c0.8-0.3,1.7-0.5,2.6-0.5c0.9-0.2,1.8-0.3,2.6-0.2c-0.8,0.4-1.7,0.7-2.6,0.7
			C255.2,168.8,254.3,168.7,253.4,168.5z"/>
		<path d="M243.1,166.5c1.7,0.4,3.4,0.9,5,1.5c-0.9,0.1-1.8,0-2.6-0.4C244.6,167.5,243.8,167.1,243.1,166.5z"/>
		<path d="M235.8,159.3c0.1-0.1,0.6,1,1.4,2.2s1.6,2,1.5,2.1s-1.1-0.6-1.9-1.8C236.2,161.1,235.8,160.2,235.8,159.3z"/>
		<path d="M240.2,151.1c0,0.2-1.1,0.5-2.2,1.3s-1.8,1.8-1.9,1.7s0.3-1.3,1.6-2.2C238.4,151.4,239.3,151.1,240.2,151.1z"/>
		<path d="M249.3,154.9c-0.1,0.1-0.8-0.9-1.8-1.9s-2.1-1.4-2-1.6c0.9,0.1,1.8,0.5,2.4,1.2C248.6,153.2,249.1,154,249.3,154.9z"/>
		<path d="M249.6,165.1c0.1-0.9,0.2-1.7,0.5-2.6c0.1-0.9,0.2-1.7,0.5-2.6c0.3,0.9,0.3,1.8,0,2.7
			C250.5,163.5,250.2,164.4,249.6,165.1z"/>
		<path d="M242.8,172.9c-0.1-0.1,0.8-0.9,1.9-1.8s2-1.7,2.1-1.6s-0.6,1.1-1.7,2S242.8,173.1,242.8,172.9z"/>
		<path d="M233.4,177.8c0.7-0.6,1.4-1.1,2.3-1.4c0.8-0.5,1.6-0.7,2.5-0.9C236.8,176.6,235.1,177.4,233.4,177.8L233.4,177.8z"/>
		<path d="M224,182.6c-0.1-0.1,0.9-0.8,2.1-1.6c0.7-0.5,1.6-0.9,2.5-1c0.1,0.1-0.9,0.8-2.2,1.5C225.7,182,224.9,182.4,224,182.6z"/>
		<path d="M216,189.4c-0.1-0.1,0.6-1.1,1.6-2.1c0.6-0.7,1.3-1.2,2.1-1.6c0.1,0.1-0.7,1-1.7,2S216.2,189.5,216,189.4z"/>
		<path d="M210,198.1c0.2-0.9,0.5-1.7,1.1-2.4c0.8-1.2,1.6-2.1,1.7-2.1c-0.3,0.8-0.7,1.6-1.2,2.4C210.8,197.1,210.1,198.1,210,198.1
			z"/>
		<path d="M206.2,207.9c-0.1-0.9,0.1-1.8,0.5-2.6c0.2-0.9,0.6-1.7,1.1-2.4C207.5,204.6,206.9,206.3,206.2,207.9L206.2,207.9z"/>
		<path d="M204.8,218.3c-0.4-1.8-0.2-3.6,0.4-5.3c0.2,0.9,0.2,1.8,0,2.6C205.2,216.6,205.1,217.5,204.8,218.3z"/>
		<path d="M206.2,228.7c-0.4-0.8-0.7-1.6-0.8-2.5c-0.3-0.9-0.4-1.8-0.2-2.6c0.4,0.8,0.6,1.7,0.8,2.5
			C206.1,226.9,206.2,227.8,206.2,228.7z"/>
		<path d="M210.2,238.4c-0.1,0.1-0.8-0.9-1.5-2.2c-0.5-0.8-0.8-1.6-0.9-2.5c0.6,0.7,1,1.4,1.3,2.3
			C209.7,236.7,210,237.6,210.2,238.4z"/>
		<path d="M216.6,246.9c-0.1,0.1-1-0.7-2-1.8c-0.6-0.6-1.1-1.4-1.4-2.2c0.1-0.1,0.9,0.8,1.9,1.9S216.7,246.8,216.6,246.9z"/>
		<path d="M224.7,253.6c-0.9-0.2-1.7-0.7-2.3-1.3c-1.2-0.9-2-1.7-1.9-1.8c0.8,0.3,1.6,0.8,2.2,1.4
			C223.8,252.7,224.8,253.4,224.7,253.6z"/>
		<path d="M234.2,258.1c-0.9,0-1.8-0.2-2.6-0.6c-0.9-0.2-1.7-0.7-2.3-1.3c0.9,0.1,1.7,0.4,2.5,0.8
			C232.6,257.2,233.4,257.6,234.2,258.1z"/>
		<path d="M239.5,259.5c0,0.1-0.1,0.3-0.1,0.2s-0.1-0.1,0-0.3s0.1-0.3,0.1-0.2S239.5,259.3,239.5,259.5z"/>
		
			<rect x="221.6" y="229.1" transform="matrix(0.312 -0.9501 0.9501 0.312 -68.1862 375.5746)" class="st5" width="7.2" height="11.5"/>
		<g class="st6">
			<rect x="221.6" y="229.1" transform="matrix(0.312 -0.9501 0.9501 0.312 -68.1862 375.5746)" width="7.2" height="11.5"/>
		</g>
		<path class="st5" d="M231.8,233.3c-2,1-4.2,1.9-6.3,2.6l-0.2,0.1l-0.1-0.2l-0.2-0.2c-1.5-1.8-2.9-3.8-4.1-5.9
			c1.6,1.7,3.2,3.6,4.5,5.5l0.2,0.2l-0.3-0.1C227.4,234.5,229.6,233.8,231.8,233.3z"/>
		<g class="st8">
			<path d="M231.8,233.3c-2,1-4.2,1.9-6.3,2.6l-0.2,0.1l-0.1-0.2l-0.2-0.2c-1.5-1.8-2.9-3.8-4.1-5.9c1.6,1.7,3.2,3.6,4.5,5.5
				l0.2,0.2l-0.3-0.1C227.4,234.5,229.6,233.8,231.8,233.3z"/>
		</g>
		<path class="st5" d="M224,233.9c-0.8,0.7-1.6,1.2-2.6,1.6c-0.9,0.5-1.8,0.9-2.8,1.1c0.8-0.7,1.6-1.2,2.6-1.6
			C222.1,234.4,223,234,224,233.9z"/>
		<g class="st8">
			<path d="M224,233.9c-0.8,0.7-1.6,1.2-2.6,1.6c-0.9,0.5-1.8,0.9-2.8,1.1c0.8-0.7,1.6-1.2,2.6-1.6C222.1,234.4,223,234,224,233.9z"
				/>
		</g>
		<path class="st5" d="M229.8,240.1c-0.6-0.8-1.1-1.6-1.4-2.5c-0.7-1.5-1.1-2.8-0.9-2.8c0.6,0.8,1.1,1.6,1.4,2.5
			C229.3,238.2,229.6,239.2,229.8,240.1z"/>
		<g class="st8">
			<path d="M229.8,240.1c-0.6-0.8-1.1-1.6-1.4-2.5c-0.7-1.5-1.1-2.8-0.9-2.8c0.6,0.8,1.1,1.6,1.4,2.5
				C229.3,238.2,229.6,239.2,229.8,240.1z"/>
		</g>
		
			<rect x="250.3" y="249.2" transform="matrix(0.312 -0.9501 0.9501 0.312 -72.3464 428.1792)" class="st5" width="18.4" height="29.6"/>
		<path class="st5" d="M276.4,259.9c-0.4,0.2-0.8,0.4-1.3,0.6l-3.5,1.4c-3,1.1-7.1,2.7-11.7,4.4l-0.2,0.1l-0.1-0.2l-0.5-0.6
			c-3.1-4-5.8-7.7-7.8-10.4l-2.3-3.2c-0.3-0.4-0.6-0.8-0.8-1.2c0.4,0.3,0.7,0.7,1,1.1l2.4,3.1c2.1,2.6,4.9,6.3,7.9,10.3l0.5,0.6
			l-0.3-0.1c4.6-1.7,8.8-3.2,11.8-4.2l3.6-1.2C275.5,260.1,275.9,260,276.4,259.9z"/>
		<g class="st9">
			<path d="M276.4,259.9c-0.4,0.2-0.8,0.4-1.3,0.6l-3.5,1.4c-3,1.1-7.1,2.7-11.7,4.4l-0.2,0.1l-0.1-0.2l-0.5-0.6
				c-3.1-4-5.8-7.7-7.8-10.4l-2.3-3.2c-0.3-0.4-0.6-0.8-0.8-1.2c0.4,0.3,0.7,0.7,1,1.1l2.4,3.1c2.1,2.6,4.9,6.3,7.9,10.3l0.5,0.6
				l-0.3-0.1c4.6-1.7,8.8-3.2,11.8-4.2l3.6-1.2C275.5,260.1,275.9,260,276.4,259.9z"/>
		</g>
		<path class="st5" d="M256.4,261.4c-2.2,1.4-4.5,2.6-6.8,3.6c-2.3,1.2-4.6,2.3-7.1,3.1c2.2-1.4,4.5-2.6,6.8-3.6
			C251.6,263.3,254,262.3,256.4,261.4z"/>
		<g class="st9">
			<path d="M256.4,261.4c-2.2,1.4-4.5,2.6-6.8,3.6c-2.3,1.2-4.6,2.3-7.1,3.1c2.2-1.4,4.5-2.6,6.8-3.6
				C251.6,263.3,254,262.3,256.4,261.4z"/>
		</g>
		<path class="st5" d="M271.1,277.6c-1.2-2.1-2.3-4.4-3.2-6.7c-1.1-2.2-2-4.5-2.7-6.9c1.2,2.1,2.3,4.4,3.2,6.7
			C269.5,272.9,270.4,275.2,271.1,277.6z"/>
		<g class="st9">
			<path d="M271.1,277.6c-1.2-2.1-2.3-4.4-3.2-6.7c-1.1-2.2-2-4.5-2.7-6.9c1.2,2.1,2.3,4.4,3.2,6.7
				C269.5,272.9,270.4,275.2,271.1,277.6z"/>
		</g>
		<path d="M249.8,255c-2,1.4-4.7,1-6.1-0.9c-1.4-2-1-4.7,0.9-6.1c2-1.4,4.7-1,6.1,0.9C252.2,250.8,251.8,253.6,249.8,255
			C249.8,255,249.8,255,249.8,255z"/>
		<path class="st3" d="M250,250.6c-0.9,0.7-1.9,1.3-2.9,1.8l-0.7,0.4l-0.1,0.1l-0.1-0.1c-0.5-0.8-0.9-1.5-1.2-2.4
			c0.6,0.7,1,1.4,1.4,2.2l-0.2-0.1l0.7-0.4C247.9,251.6,248.9,251.1,250,250.6z"/>
		
			<rect x="244.6" y="230.7" transform="matrix(0.312 -0.9501 0.9501 0.312 -54.9558 401.0989)" class="st5" width="9.6" height="15.5"/>
		<g class="st9">
			<rect x="244.6" y="230.7" transform="matrix(0.312 -0.9501 0.9501 0.312 -54.9558 401.0989)" width="9.6" height="15.5"/>
		</g>
		<path class="st5" d="M258.3,236.3c-0.2,0.1-0.4,0.2-0.6,0.3l-1.8,0.7c-1.6,0.6-3.7,1.4-6.1,2.3h-0.1l-0.1-0.1l-0.2-0.3
			c-1.6-2.1-3-4.1-4.1-5.5l-1.2-1.6c-0.2-0.2-0.3-0.4-0.4-0.6c0.2,0.2,0.4,0.4,0.5,0.6l1.3,1.6c1.1,1.4,2.5,3.3,4.1,5.4l0.2,0.3
			h-0.2c2.4-0.9,4.6-1.7,6.2-2.2l1.9-0.6C257.8,236.5,258.1,236.4,258.3,236.3z"/>
		<g class="st9">
			<path class="st5" d="M258.3,236.3c-0.2,0.1-0.4,0.2-0.6,0.3l-1.8,0.7c-1.6,0.6-3.7,1.4-6.1,2.3h-0.1l-0.1-0.1l-0.2-0.3
				c-1.6-2.1-3-4.1-4.1-5.5l-1.2-1.6c-0.2-0.2-0.3-0.4-0.4-0.6c0.2,0.2,0.4,0.4,0.5,0.6l1.3,1.6c1.1,1.4,2.5,3.3,4.1,5.4l0.2,0.3
				h-0.2c2.4-0.9,4.6-1.7,6.2-2.2l1.9-0.6C257.8,236.5,258.1,236.4,258.3,236.3z"/>
		</g>
		<path class="st5" d="M247.8,237.1c-1.1,0.7-2.3,1.3-3.6,1.9c-1.2,0.6-2.4,1.2-3.7,1.6c1.1-0.7,2.3-1.4,3.6-1.9
			C245.3,238.1,246.6,237.6,247.8,237.1z"/>
		<g class="st9">
			<path class="st5" d="M247.8,237.1c-1.1,0.7-2.3,1.3-3.6,1.9c-1.2,0.6-2.4,1.2-3.7,1.6c1.1-0.7,2.3-1.4,3.6-1.9
				C245.3,238.1,246.6,237.6,247.8,237.1z"/>
		</g>
		<path class="st5" d="M255.6,245.6c-0.6-1.1-1.2-2.3-1.7-3.5c-0.6-1.2-1-2.4-1.4-3.6C253.7,240.8,254.7,243.1,255.6,245.6
			L255.6,245.6z"/>
		<g class="st9">
			<path class="st5" d="M255.6,245.6c-0.6-1.1-1.2-2.3-1.7-3.5c-0.6-1.2-1-2.4-1.4-3.6C253.7,240.8,254.7,243.1,255.6,245.6
				L255.6,245.6z"/>
		</g>
		<path d="M140,121.6c-2.8,11.2-14.2,17.9-25.4,15.1c-11.2-2.8-17.9-14.2-15.1-25.4c2.8-11.2,14.2-17.9,25.4-15.1
			C136.1,99,142.8,110.4,140,121.6z"/>
		<path class="st3" d="M127.5,105.1c0.4,0.2-2,7.1-5.3,15.6c-0.5,1.2-1,2.4-1.4,3.6l-0.2,0.6l-0.6-0.2c-6.8-2.6-11.7-4.8-11.6-5.1
			s5.3,1.3,12.1,3.8l-0.9,0.4c0.4-1.2,0.9-2.3,1.4-3.6C124.1,111.7,127.1,105,127.5,105.1z"/>
	</g>
	<g id="freepik--Plant--inject-96">
		<path class="st5" d="M396.6,417.1c3.7-1.8,7.9-2.3,12-1.5c2.2,0.4,4.5,1,5.9,2.6s1.8,4.5,0.1,5.9c-1.1,0.7-2.4,1.1-3.7,1
			c-3.2,0-6.7-0.6-9.2,1.3c-1.5,1.1-2.4,2.9-4.1,3.4c-1.8,0.4-3.6-0.4-4.5-2c-0.8-1.6-1-3.4-0.5-5.2
			C392.9,420.3,394.5,418.2,396.6,417.1z"/>
		<g class="st9">
			<path class="st3" d="M396.6,417.1c3.7-1.8,7.9-2.3,12-1.5c2.2,0.4,4.5,1,5.9,2.6s1.8,4.5,0.1,5.9c-1.1,0.7-2.4,1.1-3.7,1
				c-3.2,0-6.7-0.6-9.2,1.3c-1.5,1.1-2.4,2.9-4.1,3.4c-1.8,0.4-3.6-0.4-4.5-2c-0.8-1.6-1-3.4-0.5-5.2
				C392.9,420.3,394.5,418.2,396.6,417.1z"/>
		</g>
		<path class="st5" d="M388.3,400.9c2.2,3.2,6.6,2.1,8.6,0.2s2.9-4.8,3.6-7.5c1.8-6.1,3.5-12.6,2.2-18.9c-0.3-1.9-1.2-3.7-2.4-5.1
			c-1.3-1.5-3.3-2.1-5.2-1.7c-2.2,0.6-3.5,2.7-4.5,4.8c-2.9,6-4.4,12.6-4.4,19.3C386.2,395.1,386.5,398.4,388.3,400.9"/>
		<path class="st5" d="M382.1,405.5c2.4-2.9,2.9-7.1,1.8-10.7c-1.2-3.6-3.4-6.8-6.3-9.2c-3.3-2.9-7.2-5.2-11.3-6.6
			c-1.6-0.7-3.4-1-5.1-0.9c-1.8,0.1-3.4,1.1-4.3,2.6c-1.2,2.3,0,5,1.2,7.3c2.2,4,4.7,7.8,7.4,11.3c2.2,2.9,4.8,5.7,8.2,7
			s6.9,1.1,8.7-1.2"/>
		<g class="st8">
			<path d="M382.1,405.5c2.4-2.9,2.9-7.1,1.8-10.7c-1.2-3.6-3.4-6.8-6.3-9.2c-3.3-2.9-7.2-5.2-11.3-6.6c-1.6-0.7-3.4-1-5.1-0.9
				c-1.8,0.1-3.4,1.1-4.3,2.6c-1.2,2.3,0,5,1.2,7.3c2.2,4,4.7,7.8,7.4,11.3c2.2,2.9,4.8,5.7,8.2,7s6.9,1.1,8.7-1.2"/>
		</g>
		<path d="M388.1,449.1c0.1-0.5,0.2-1,0.2-1.5c0.1-1.1,0.2-2.4,0.4-4c0.2-1.9,0.5-3.9,0.9-5.8c0.5-2.3,1.2-4.6,2.1-6.9
			c0.9-2.2,2-4.3,3.5-6.2c1.2-1.5,2.7-2.8,4.4-3.7c1.2-0.6,2.4-1,3.7-1.2c0.5,0,1-0.1,1.4-0.2c-0.5-0.1-1-0.1-1.5,0
			c-1.3,0.1-2.7,0.4-3.9,1c-1.8,0.9-3.4,2.1-4.7,3.7c-1.5,1.9-2.7,4-3.6,6.3c-0.9,2.3-1.6,4.6-2.1,7c-0.4,1.9-0.6,3.9-0.8,5.9
			c-0.1,1.7-0.2,3-0.2,4C388.1,448.1,388.1,448.6,388.1,449.1z"/>
		<path d="M388.4,446c0-0.2,0-0.4,0-0.7v-1.9c0-1.7,0-4.1,0.1-7.1c0.1-6,0.7-14.2,1.7-23.3s2.3-17.2,3.5-23c0.3-1.5,0.6-2.8,0.8-3.9
			s0.5-2.2,0.7-3s0.3-1.4,0.5-1.9c0.1-0.2,0.1-0.4,0.1-0.7c-0.1,0.2-0.2,0.4-0.2,0.6l-0.6,1.9c-0.2,0.8-0.5,1.8-0.8,2.9
			s-0.6,2.5-0.9,3.9c-1.6,7.6-2.9,15.3-3.7,23c-1,9.1-1.4,17.3-1.5,23.3c0,3,0,5.4,0.1,7.1c0,0.8,0.1,1.4,0.1,1.9
			C388.3,445.5,388.4,445.8,388.4,446z"/>
		<path d="M388.4,430.1c0.1-0.7,0.1-1.3,0-2c-0.1-1.8-0.3-3.6-0.6-5.4c-1-6-2.7-11.8-5.1-17.3c-2.3-5.6-5.6-10.8-9.7-15.2
			c-0.7-0.8-1.5-1.5-2.3-2.1c-0.4-0.3-0.7-0.6-1-0.8l-0.9-0.6c-0.5-0.4-1.1-0.8-1.7-1.1c1.9,1.5,3.8,3.2,5.5,5
			c4,4.5,7.2,9.6,9.5,15.1c1.3,3,2.4,6.1,3.3,9.3c0.9,2.9,1.5,5.6,1.9,7.9s0.6,4.1,0.8,5.4C388.2,428.8,388.3,429.4,388.4,430.1z"/>
	</g>
	<g id="freepik--Device--inject-96">
		<polygon class="st10" points="236.4,298.2 278.2,298.2 294.8,251.9 292.5,251.9 276,296 236.4,296.2 		"/>
	</g>
	<g id="freepik--Desk--inject-96">
		<polygon points="217.9,304.1 219.4,449.2 223.7,449.2 221.9,303 		"/>
		<path d="M307.5,302.7c-0.6,2.8,3.8,146.8,3.8,146.8h4l-3.2-146.8H307.5z"/>
		<polygon points="356.4,298.2 178.4,298.2 178.4,305.6 193.1,305.6 183.5,448.7 187.7,449 197.3,305.6 341.4,305.6 348.4,449 
			352.6,449 345.6,305.6 356.4,305.6 		"/>
	</g>
	<g id="freepik--Character--inject-96">
		<path class="st5" d="M256,443.7v-11l-20.6-0.2l-0.2,16.1l1.3,0.1c5.7,0.4,28.9,1.5,32.7,0.4C273.4,447.9,256,443.7,256,443.7z"/>
		<path class="st11" d="M242.6,448.5c-0.3-1.7-1.2-3.3-2.6-4.4c-1.4-1.1-3.1-1.6-4.8-1.5l-0.1,5.8L242.6,448.5z"/>
		<path class="st11" d="M264.5,446c0,0,6.1,1.8,5.3,2.8s-24.3,0.8-34.7-0.3v-0.5l27.4,0.5C262.6,448.7,263.3,446.1,264.5,446z"/>
		<path d="M234.9,448.1h0.4l1,0.1l3.7,0.2c3.2,0.1,7.5,0.3,12.4,0.4c4.8,0.1,9.2,0,12.4-0.1l3.8-0.1l1,0h0.4c-0.1,0-0.2,0-0.4,0h-1
			h-3.8c-3.2,0-7.5,0-12.4,0s-9.2-0.2-12.4-0.3l-3.8-0.1h-1L234.9,448.1z"/>
		<path d="M262.6,449c0.2-0.6,0.4-1.2,0.7-1.8c0.4-0.5,0.8-1,1.3-1.4C263.4,446.3,262.6,447.6,262.6,449L262.6,449z"/>
		<path d="M256.6,445.9c0.1,0,0.4-0.3,0.7-0.8s0.5-0.9,0.5-0.9s-0.4,0.3-0.7,0.8C256.8,445.2,256.7,445.5,256.6,445.9z"/>
		<path d="M254.9,445c0.1,0,0.4-0.2,0.7-0.5s0.6-0.6,0.6-0.7c-0.1-0.1-0.4,0.2-0.7,0.5S254.9,444.9,254.9,445z"/>
		<path d="M253.9,443c0.3,0.1,0.7,0.2,1.1,0.1c0.4,0,0.7,0,1.1-0.1c-0.3-0.1-0.7-0.2-1.1-0.1C254.6,442.9,254.2,442.9,253.9,443z"/>
		<path d="M253.5,441.6c0.7,0.4,1.6,0.5,2.4,0.2C255.2,441.8,254.3,441.7,253.5,441.6z"/>
		<path d="M257.3,444.1c0.4,0.1,0.9,0.1,1.3,0c0.5-0.1,1-0.1,1.4-0.3c0.3-0.1,0.6-0.2,0.8-0.3c0.2-0.1,0.3-0.2,0.3-0.4
			c0-0.2,0-0.4-0.2-0.5c-1-0.5-2.3-0.2-3,0.7c-0.2,0.3-0.4,0.6-0.5,0.9c0,0.2,0,0.4,0,0.4c0.1-0.4,0.3-0.8,0.6-1.1
			c0.3-0.3,0.7-0.6,1.1-0.7c0.5-0.2,1.1-0.1,1.6,0.1c0.2,0.2,0.1,0.4-0.1,0.5c-0.2,0.1-0.5,0.2-0.8,0.3c-0.4,0.1-0.9,0.3-1.4,0.3
			C257.8,444,257.3,444,257.3,444.1z"/>
		<path d="M257.6,444.1c0.2-0.3,0.2-0.6,0.2-0.9c0-0.4-0.2-0.7-0.4-1c-0.2-0.4-0.6-0.7-1.1-0.7c-0.3,0.1-0.5,0.3-0.4,0.6
			c0,0.2,0.1,0.4,0.2,0.6c0.2,0.3,0.4,0.6,0.6,0.8c0.2,0.2,0.5,0.4,0.8,0.5c0,0-0.3-0.2-0.6-0.7c-0.2-0.2-0.4-0.5-0.5-0.8
			c-0.2-0.3-0.3-0.8,0-0.8c0.3,0,0.7,0.3,0.9,0.6c0.2,0.3,0.3,0.6,0.4,0.9C257.6,443.5,257.7,443.8,257.6,444.1z"/>
		<path d="M235.4,442.5c0,0,0.6,0,1.5,0.1c1.2,0.2,2.4,0.6,3.3,1.4c0.9,0.8,1.6,1.8,2,3c0.3,0.9,0.3,1.5,0.4,1.5s0-0.1,0-0.4
			c0-0.4-0.1-0.8-0.2-1.1c-0.7-2.5-2.9-4.3-5.5-4.5c-0.4,0-0.8,0-1.1,0C235.6,442.4,235.5,442.5,235.4,442.5z"/>
		<path d="M237.6,434c-0.2,2.8-0.3,5.6-0.2,8.5c0.2-1.4,0.2-2.8,0.2-4.2C237.7,436.8,237.7,435.4,237.6,434z"/>
		<path d="M245.2,446.5c1,0.2,2,0.4,3,0.3c1,0.1,2,0,3-0.2c0-0.1-1.4,0-3,0S245.2,446.5,245.2,446.5z"/>
		<path d="M241.2,446.5c0,0,0.1,0.3,0.2,0.6s0.2,0.6,0.3,0.6s0.1-0.3-0.1-0.7S241.2,446.5,241.2,446.5z"/>
		<path d="M239.7,444.6c0,0,0.1,0.3,0.3,0.5s0.4,0.4,0.5,0.3s-0.1-0.3-0.3-0.5S239.8,444.5,239.7,444.6z"/>
		<path d="M237.5,443.7c0,0.1,0.3,0.1,0.6,0.2s0.5,0.3,0.6,0.2s-0.1-0.3-0.5-0.5S237.5,443.6,237.5,443.7z"/>
		<path d="M236,443.3c0,0.1,0.1,0.2,0.3,0.2s0.3,0.1,0.4,0s-0.1-0.2-0.3-0.2S236,443.2,236,443.3z"/>
		<path class="st5" d="M296.5,432.6l-4.5-10.1l-18.9,8.3l6.4,14.8l1.2-0.4c5.3-2,27-10.5,30-13.1
			C314.1,429.2,296.5,432.6,296.5,432.6z"/>
		<path class="st11" d="M286.4,442.5c-1-1.5-2.5-2.6-4.2-3c-1.7-0.4-3.5-0.2-5,0.6l2.3,5.3L286.4,442.5z"/>
		<path class="st11" d="M305.2,431.2c0,0,6.3-0.9,6,0.4s-21.8,10.7-31.7,14l-0.1-0.4l25.2-10.8C304.6,434.4,304.2,431.8,305.2,431.2
			z"/>
		<path d="M279.1,445.3l0.3-0.1l1-0.4l3.5-1.4c2.9-1.2,7-2.8,11.4-4.8s8.4-3.8,11.2-5.1l3.4-1.6l0.9-0.5c0.1,0,0.2-0.1,0.3-0.2
			l-0.3,0.1l-0.9,0.4l-3.4,1.6c-2.9,1.3-6.9,3.1-11.3,5.1s-8.5,3.6-11.4,4.8l-3.5,1.4l-0.9,0.4L279.1,445.3z"/>
		<path d="M304.8,434.7c-0.1-0.6-0.1-1.3-0.1-1.9c0.1-0.6,0.3-1.2,0.6-1.8c-0.5,0.5-0.8,1.1-0.8,1.8
			C304.3,433.4,304.4,434.1,304.8,434.7z"/>
		<path d="M298,434.3c0.1,0,0.2-0.4,0.3-1s0.1-1,0-1s-0.2,0.4-0.3,1C297.9,433.6,297.9,434,298,434.3z"/>
		<path d="M296.1,434.2c0.1,0,0.3-0.3,0.5-0.7s0.3-0.8,0.2-0.8s-0.3,0.3-0.5,0.7S296,434.1,296.1,434.2z"/>
		<path d="M294.3,432.8c0.4,0,0.7-0.1,1-0.3c0.5-0.2,1-0.5,0.9-0.5s-0.5,0.1-1,0.3S294.3,432.7,294.3,432.8z"/>
		<path d="M293.5,431.7c0.4,0.1,0.9,0,1.2-0.2c0.4-0.1,0.8-0.3,1.1-0.6c-0.4,0.1-0.8,0.2-1.1,0.4
			C294.2,431.4,293.8,431.5,293.5,431.7z"/>
		<path d="M297.9,432.4c0.4-0.1,0.8-0.3,1.2-0.5c0.4-0.2,0.8-0.5,1.2-0.9c0.2-0.2,0.4-0.4,0.6-0.6c0.1-0.1,0.2-0.3,0.1-0.5
			c0-0.2-0.2-0.4-0.4-0.4c-1.3-0.1-2.5,1-2.5,2.3c0,0.2,0,0.3,0,0.5c0,0.1,0,0.2,0.1,0.4c0-0.4,0-0.9,0.1-1.3
			c0.1-0.4,0.4-0.8,0.7-1.1c0.4-0.4,0.9-0.6,1.5-0.5c0.3,0,0.3,0.3,0.1,0.5c-0.2,0.2-0.3,0.4-0.5,0.6c-0.3,0.3-0.7,0.6-1.1,0.9
			C298.3,432.1,297.9,432.3,297.9,432.4z"/>
		<path d="M298.2,432.3c0-0.3-0.1-0.6-0.2-0.9c-0.2-0.3-0.4-0.6-0.7-0.8c-0.4-0.3-0.9-0.3-1.3-0.2c-0.2,0.2-0.3,0.5-0.1,0.7
			c0.1,0.2,0.3,0.3,0.4,0.5c0.3,0.2,0.6,0.4,0.9,0.5c0.3,0.1,0.6,0.2,0.9,0.2c0,0-0.3-0.1-0.8-0.4c-0.3-0.1-0.6-0.3-0.8-0.5
			c-0.3-0.2-0.6-0.6-0.3-0.8c0.3-0.1,0.7,0,1,0.2c0.3,0.2,0.5,0.4,0.7,0.6C298,431.7,298.1,432,298.2,432.3z"/>
		<path d="M277.2,440c0,0,0.5-0.3,1.4-0.6c2.4-0.7,5-0.1,6.7,1.8c0.6,0.7,0.9,1.2,1,1.2c0-0.1-0.1-0.3-0.2-0.4
			c-0.2-0.3-0.4-0.6-0.6-0.9c-0.8-1-1.9-1.7-3.1-2c-1.2-0.3-2.5-0.3-3.7,0.1c-0.3,0.1-0.7,0.3-1,0.5
			C277.3,439.9,277.2,440,277.2,440z"/>
		<path d="M275.8,431.3c0.4,1.4,0.9,2.7,1.5,4c0.5,1.3,1.1,2.6,1.8,3.9c-0.4-1.3-0.9-2.7-1.5-4C277,433.8,276.4,432.5,275.8,431.3z"
			/>
		<path d="M287.9,439.6c1-0.2,2-0.5,2.9-0.9c0.9-0.4,1.8-0.8,2.7-1.4c0-0.1-1.2,0.5-2.8,1.2S287.9,439.5,287.9,439.6z"/>
		<path d="M284.2,441.2c0,0.1,0.2,0.2,0.5,0.5s0.4,0.5,0.5,0.4s0-0.3-0.3-0.6S284.2,441.1,284.2,441.2z"/>
		<path d="M282.1,440.1c0,0.1,0.2,0.2,0.5,0.3s0.5,0.1,0.6,0.1s-0.2-0.2-0.5-0.3S282.1,440,282.1,440.1z"/>
		<path d="M279.7,440.2c0,0.1,0.3,0,0.6-0.1s0.6,0,0.6,0s-0.2-0.3-0.6-0.2S279.7,440.1,279.7,440.2z"/>
		<path d="M278.1,440.4c0,0.1,0.2,0.1,0.3,0.1s0.3-0.1,0.3-0.1s-0.2-0.1-0.3-0.1S278.1,440.4,278.1,440.4z"/>
		<path class="st5" d="M109.5,359.1L94.6,247.9c-0.3-2.6,1.5-4.9,4-5.3c0.3,0,0.6-0.1,1,0l35.9,3c3.3,0.3,5.9,2.9,6.2,6.2l8.7,105.3
			L109.5,359.1z"/>
		<g class="st9">
			<path d="M109.5,359.1L94.6,247.9c-0.3-2.6,1.5-4.9,4-5.3c0.3,0,0.6-0.1,1,0l35.9,3c3.3,0.3,5.9,2.9,6.2,6.2l8.7,105.3
				L109.5,359.1z"/>
		</g>
		<path d="M144.1,195.7c-0.3-4.2-1.4-8.4-2-12.6s-0.7-8.6,0.9-12.5c2.1-4.4,5.8-7.8,10.3-9.5c4.5-1.6,9.4-2.2,14.2-1.6
			c0.9,0,1.7,0.2,2.5,0.6c0.8,0.4,1.3,1.1,1.4,2c0,0.9-0.6,1.6-1.5,1.6c0,0-0.1,0-0.1,0c1.8,0.2,3.6,0.6,5.4,1.1
			c0.7,0.2,1.3,0.6,1.7,1.2c0.3,0.8,0.3,1.7-0.2,2.4c-0.5,0.7-1.1,1.2-1.8,1.7c0.9-0.2,1.8,0.4,1.9,1.3c0,0,0,0,0,0
			c0.1,0.9-0.1,1.8-0.7,2.5c-0.5,0.7-1.2,1.3-1.7,2c-2.2,2.9-1.7,6.9-1.2,10.4"/>
		<path class="st12" d="M144.5,220.6l20.2-0.4c0.3-2.3,0.7-11.4,0.7-11.4s8.4-0.8,9.1-9.1s0.4-27.7,0.4-27.7l0,0
			c-9.4-4.8-20.7-4-29.4,1.9l-1.3,0.9L144.5,220.6z"/>
		<path d="M172,186.4c-0.5-0.5-0.5-1.3,0-1.7c0.5-0.5,1.3-0.5,1.7,0c0.5,0.5,0.5,1.2,0,1.7C173.3,186.9,172.5,186.9,172,186.4
			C172,186.5,172,186.5,172,186.4z"/>
		<path d="M174.1,184.4c-0.1,0.1-0.9-0.5-2.1-0.6s-2,0.5-2.1,0.3s0.1-0.3,0.5-0.6c1.1-0.7,2.4-0.6,3.4,0.2
			C174.1,184.1,174.2,184.4,174.1,184.4z"/>
		<path d="M160.8,184.6c0.6,0.4,0.7,1.1,0.3,1.7c-0.4,0.6-1.1,0.7-1.7,0.3s-0.7-1.1-0.3-1.7c0,0,0,0,0,0
			C159.5,184.4,160.2,184.2,160.8,184.6C160.8,184.6,160.8,184.6,160.8,184.6z"/>
		<path d="M161.6,184.7c-0.1,0.1-0.9-0.6-2.1-0.6s-2,0.5-2.1,0.3s0.1-0.3,0.5-0.6c1.1-0.7,2.4-0.6,3.4,0.2
			C161.5,184.3,161.6,184.6,161.6,184.7z"/>
		<path d="M165.6,194.5c0.6-0.2,1.2-0.3,1.9-0.3c0.3,0,0.6-0.1,0.6-0.2c0-0.3,0-0.6-0.2-0.9c-0.2-0.8-0.5-1.6-0.8-2.4
			c-1.1-3.4-1.8-6.2-1.6-6.3s1.2,2.7,2.2,6.1c0.2,0.8,0.5,1.6,0.7,2.4c0.2,0.4,0.2,0.8,0.1,1.3c-0.1,0.2-0.3,0.4-0.6,0.4
			c-0.2,0-0.3,0-0.5,0C166.9,194.7,166.2,194.6,165.6,194.5z"/>
		<path class="st3" d="M161.8,195.5c-1.1-0.8,3.2,2,5.6,2c-0.9,1.2-2.5,1.6-3.8,1C161,197.4,161.8,195.5,161.8,195.5z"/>
		<path class="st13" d="M165.4,208.6c-3.9-0.2-7.6-1.5-10.7-3.8c0,0,2.2,6.2,10.6,5.9L165.4,208.6z"/>
		<path d="M143.8,181l0.4,10.9c0,0,3.8-1.2,4.1-1.3s-0.1-13.3-0.1-13.3s-0.5-5,2.7-6.1c3.4-1.2,4.9,1.2,9.7,2
			c15.9,2.7,14.8-2.2,14.8-2.2s2-2.1-2.1-4.5s-14.3-3.2-19.9-1.2c-11,3.8-11.7,7.6-11.7,10.9C141.8,180.8,143.8,181,143.8,181z"/>
		<path class="st12" d="M145.7,182.1c-0.2-0.1-6.2-0.9-5.6,6.3s7.6,4.2,7.6,4S145.7,182.1,145.7,182.1z"/>
		<path class="st13" d="M145.2,190c0,0-0.1,0.1-0.3,0.2c-0.3,0.1-0.6,0.2-0.9,0.1c-1-0.5-1.6-1.5-1.6-2.6c-0.1-0.6,0-1.2,0.2-1.8
			c0.1-0.5,0.4-0.8,0.9-1c0.3-0.1,0.6,0,0.8,0.3c0.1,0.2,0.1,0.3,0.1,0.4s0.1-0.1,0.1-0.4c0-0.2-0.2-0.3-0.3-0.4
			c-0.2-0.1-0.5-0.2-0.7-0.1c-0.6,0.2-1,0.6-1.2,1.2c-0.3,0.6-0.3,1.3-0.3,2c0.2,1.4,1,2.7,2,2.9c0.4,0.1,0.8,0,1.1-0.3
			C145.2,190.2,145.2,190.1,145.2,190z"/>
		<path class="st12" d="M225.1,278c0,0,10-0.5,12,0.4c3.5,1.5,13.8,17.7,13.2,17.7c-1.6,0-4.8,0-4.8,0l-16-6.1l-3.8,1L225.1,278z"/>
		<path d="M268.1,324.4c0,0,29.9,103.6,30,103.1s-26.8,12.9-26.8,12.9l-18.1-74.9L268.1,324.4z"/>
		<polygon class="st10" points="270.7,441 299,427.2 297.8,423.4 269.2,437.3 		"/>
		<path class="st10" d="M266.9,402.9c-0.1,0-0.5-0.6-0.7-1.4s-0.3-1.6-0.2-1.6s0.5,0.6,0.7,1.4S267.1,402.9,266.9,402.9z"/>
		<path class="st10" d="M268.8,409c-0.1,0-0.5-0.6-0.7-1.4s-0.4-1.5-0.2-1.6s0.5,0.6,0.7,1.4S268.9,408.9,268.8,409z"/>
		<path class="st10" d="M270.7,415c-0.1,0-0.5-0.6-0.8-1.4s-0.4-1.5-0.2-1.6s0.5,0.6,0.8,1.4S270.9,415,270.7,415z"/>
		<path class="st10" d="M272.7,421c-0.1,0-0.5-0.6-0.8-1.4s-0.4-1.5-0.2-1.6s0.5,0.6,0.8,1.4S272.9,421,272.7,421z"/>
		<path class="st10" d="M274.8,427c-0.1,0-0.5-0.6-0.8-1.4s-0.4-1.5-0.3-1.6s0.5,0.6,0.8,1.4S275,426.9,274.8,427z"/>
		<path class="st10" d="M277,432.9c-0.1,0-0.5-0.6-0.8-1.4s-0.4-1.5-0.3-1.6s0.5,0.6,0.8,1.4S277.2,432.9,277,432.9z"/>
		<path class="st10" d="M275.4,435.4c-0.2-0.3-0.4-0.7-0.6-1.1c-0.4-0.7-0.8-1.8-1.4-3.1c-1.1-2.6-2.5-6.3-3.9-10.4
			s-2.5-7.9-3.4-10.6c-0.4-1.3-0.7-2.4-1-3.2c-0.1-0.4-0.2-0.8-0.3-1.2c0.2,0.4,0.4,0.7,0.5,1.1c0.3,0.8,0.7,1.8,1.1,3.2l3.5,10.5
			c1.4,4.1,2.7,7.8,3.7,10.5l1.2,3.1C275.2,434.6,275.3,435,275.4,435.4z"/>
		<path d="M128.5,317.2c0.2-5.5-2.9,30.1,24.5,31.1s83.3,0.5,83.3,0.5l-6.6,90.3h32.8l6.9-96.1c0,0,3.5-27.8-15.6-31.4
			c-11.9-2.2-86.1-2.9-86.1-2.9L128.5,317.2z"/>
		<polygon class="st10" points="229,439.3 263.6,439.3 263.6,433.9 229,434 		"/>
		<path class="st10" d="M174.9,344c0.1,0,0.2,0,0.4,0l1-0.1l4-0.2l14.9-0.6l50.1-1.7h0.3v0.3c-0.4,3.7-0.8,7.6-1.1,11.5
			c-0.4,5.6-0.9,11.2-1.3,16.5s-1,10.4-1.5,15.3c-1,9.7-1.9,18.5-2.7,25.9s-1.4,13.3-1.9,17.5c-0.2,2-0.4,3.6-0.5,4.8
			c-0.1,0.5-0.1,0.9-0.1,1.2c0,0.1,0,0.3-0.1,0.4c0-0.1,0-0.3,0-0.4c0-0.3,0.1-0.7,0.1-1.2c0.1-1.1,0.2-2.7,0.4-4.8
			c0.4-4.1,1-10.1,1.7-17.5s1.6-16.2,2.6-25.9c0.5-4.9,1-10,1.5-15.3s0.8-10.8,1.3-16.5c0.3-4,0.7-7.9,1.2-11.5l0.3,0.3l-50.1,1.5
			l-14.9,0.4l-4,0.1h-1C175.2,344.1,175,344,174.9,344z"/>
		<path class="st10" d="M178.1,340.1c0,0.1-0.7,0.3-1.6,0.3s-1.6-0.1-1.6-0.2s0.7-0.3,1.6-0.3S178.1,339.9,178.1,340.1z"/>
		<path class="st10" d="M184.4,339.9c0,0.1-0.7,0.3-1.6,0.3s-1.6-0.1-1.6-0.2s0.7-0.3,1.6-0.3S184.4,339.8,184.4,339.9z"/>
		<path class="st10" d="M190.7,339.8c0,0.2-0.7,0.3-1.6,0.3s-1.6-0.1-1.6-0.2s0.7-0.3,1.6-0.3S190.7,339.6,190.7,339.8z"/>
		<path class="st10" d="M197.1,339.6c0,0.2-0.7,0.3-1.6,0.3s-1.6-0.1-1.6-0.2s0.7-0.3,1.6-0.3S197.1,339.5,197.1,339.6z"/>
		<path class="st10" d="M203.4,339.5c0,0.1-0.7,0.3-1.6,0.3s-1.6-0.1-1.6-0.2s0.7-0.3,1.6-0.3S203.4,339.3,203.4,339.5z"/>
		<path class="st10" d="M209.7,339.4c0,0.1-0.7,0.3-1.6,0.3s-1.6-0.1-1.6-0.2s0.7-0.3,1.6-0.3S209.7,339.2,209.7,339.4z"/>
		<path class="st10" d="M216.1,339.2c0,0.1-0.7,0.3-1.6,0.3s-1.6-0.1-1.6-0.2s0.7-0.3,1.6-0.3S216,339,216.1,339.2z"/>
		<path class="st10" d="M222.4,339c0,0.1-0.7,0.3-1.6,0.3s-1.6-0.1-1.6-0.2s0.7-0.3,1.6-0.3S222.4,338.9,222.4,339z"/>
		<path class="st10" d="M228.7,338.9c0,0.1-0.7,0.3-1.6,0.3s-1.6-0.1-1.6-0.2s0.7-0.3,1.6-0.3S228.7,338.8,228.7,338.9z"/>
		<path class="st10" d="M235,338.8c0,0.1-0.7,0.3-1.6,0.3s-1.6-0.1-1.6-0.2s0.7-0.3,1.6-0.3S235,338.6,235,338.8z"/>
		<path class="st10" d="M241.4,338.6c0,0.1-0.7,0.3-1.6,0.3s-1.6-0.1-1.6-0.2s0.7-0.3,1.6-0.3S241.4,338.5,241.4,338.6z"/>
		<path class="st10" d="M247.7,338.5c0,0.2-0.7,0.3-1.6,0.3s-1.6-0.1-1.6-0.2s0.7-0.3,1.6-0.3S247.7,338.3,247.7,338.5z"/>
		<path class="st10" d="M247.7,344.2c-0.2,0-0.2-0.7-0.1-1.6s0.3-1.6,0.4-1.5s0.2,0.7,0.1,1.6S247.8,344.2,247.7,344.2z"/>
		<path class="st10" d="M247.1,350.5c-0.1,0-0.2-0.7-0.1-1.6s0.3-1.6,0.4-1.5s0.2,0.7,0.1,1.6S247.2,350.5,247.1,350.5z"/>
		<path class="st10" d="M246.4,356.8c-0.1,0-0.2-0.7-0.1-1.6s0.3-1.6,0.4-1.5s0.2,0.7,0.1,1.6S246.6,356.8,246.4,356.8z"/>
		<path class="st10" d="M245.8,363.1c-0.1,0-0.2-0.7-0.1-1.6s0.3-1.6,0.4-1.5s0.2,0.7,0.1,1.6S246,363.1,245.8,363.1z"/>
		<path class="st10" d="M245.2,369.4c-0.1,0-0.2-0.7-0.1-1.6s0.3-1.6,0.4-1.5s0.2,0.7,0.1,1.6S245.4,369.4,245.2,369.4z"/>
		<path class="st10" d="M244.6,375.7c-0.1,0-0.2-0.7-0.1-1.6s0.3-1.6,0.4-1.5s0.2,0.7,0.1,1.6S244.8,375.7,244.6,375.7z"/>
		<path class="st10" d="M244,382c-0.2,0-0.2-0.7-0.1-1.6s0.3-1.6,0.4-1.5s0.2,0.7,0.1,1.6S244.1,382,244,382z"/>
		<path class="st10" d="M243.4,388.3c-0.1,0-0.2-0.7-0.1-1.6s0.3-1.6,0.4-1.5s0.2,0.7,0.1,1.6S243.5,388.3,243.4,388.3z"/>
		<path class="st10" d="M242.7,394.6c-0.1,0-0.2-0.7-0.1-1.6s0.3-1.6,0.4-1.5s0.2,0.7,0.1,1.6S242.9,394.6,242.7,394.6z"/>
		<path class="st10" d="M242.1,400.9c-0.1,0-0.2-0.7-0.1-1.6s0.3-1.6,0.4-1.5s0.2,0.7,0.1,1.6S242.3,400.9,242.1,400.9z"/>
		<path class="st10" d="M241.5,407.2c-0.1,0-0.2-0.7-0.1-1.6s0.3-1.6,0.4-1.5s0.2,0.7,0.1,1.6S241.6,407.2,241.5,407.2z"/>
		<path class="st10" d="M240.9,413.5c-0.2,0-0.2-0.7-0.1-1.6s0.3-1.6,0.4-1.5s0.2,0.7,0.1,1.6S241,413.5,240.9,413.5z"/>
		<path class="st10" d="M240.3,419.8c-0.1,0-0.2-0.7-0.1-1.6s0.3-1.6,0.4-1.5s0.2,0.7,0.1,1.6S240.4,419.8,240.3,419.8z"/>
		<path class="st10" d="M239.6,426.1c-0.1,0-0.2-0.7-0.1-1.6s0.3-1.6,0.4-1.5s0.2,0.7,0.1,1.6S239.8,426.1,239.6,426.1z"/>
		<path class="st10" d="M239,432.4c-0.1,0-0.2-0.7-0.1-1.6s0.3-1.6,0.4-1.5s0.2,0.7,0.1,1.6S239.2,432.4,239,432.4z"/>
		<path class="st10" d="M238.7,435.8c-0.1,0-0.3-0.1-0.3-0.1s0.1-0.1,0.3-0.1s0.3,0.1,0.3,0.1S238.9,435.8,238.7,435.8z"/>
		<path d="M240.8,344.6c-0.6,0.9-1.3,1.7-2.1,2.4c-0.7,0.8-1.6,1.4-2.5,1.9C237.4,347.2,239,345.7,240.8,344.6z"/>
		<path d="M243.1,345.8c-1.1,0.8-2.3,1.4-3.5,1.9c-1.2,0.6-2.4,1.1-3.8,1.4c1.1-0.8,2.3-1.4,3.5-1.9
			C240.5,346.5,241.8,346.1,243.1,345.8z"/>
		<path class="st10" d="M176.3,274.1c0,0-3.4-35.9-9.3-51.6l1.2-0.9l-1.8-6.2l-22.3-2.7l0.3,4.8c-3.3,1.5-6,4-7.6,7.2
			c-8,16.9-4,36.7-8.3,73.4c0,0-5,17.2,0.2,22.6l48.6-11.3l-2.3-11.1c21.2-0.4,56.1-4.3,56.1-4.3l-1-20.1
			C230.1,274,178,274.3,176.3,274.1"/>
		<path class="st1" d="M166.3,215.4c0.7,1.3,1.2,2.6,1.6,4c0.2,0.5,0.4,1.1,0.4,1.7c0,0.3-0.1,0.6-0.3,0.8c-0.2,0.2-0.4,0.3-0.6,0.4
			c-0.8,0.3-1.3,0.1-1.3,0s0.5-0.1,1.1-0.4c0.3-0.2,0.6-0.5,0.6-0.9c-0.1-0.5-0.3-1-0.5-1.6C166.9,218.2,166.5,216.8,166.3,215.4z"
			/>
		<path d="M171.6,242.1c0,0.2-9,0.3-20,0.3s-20-0.1-20-0.3s9-0.3,20-0.3S171.6,242,171.6,242.1z"/>
		<path d="M169.6,232c0,0.1-7.9,0.3-17.7,0.3s-17.7-0.1-17.7-0.3s7.9-0.3,17.7-0.3S169.6,231.9,169.6,232z"/>
		<path d="M166.6,223.1c0,0.1-6.6,0.3-14.7,0.3s-14.6-0.1-14.6-0.3s6.6-0.3,14.6-0.3S166.6,223,166.6,223.1z"/>
		<path d="M166.4,216.8c-3.7,0.3-7.5,0.4-11.2,0.3c-3.7,0.1-7.5,0-11.2-0.3c0-0.1,5-0.3,11.2-0.3S166.4,216.7,166.4,216.8z"/>
		<path d="M173.1,251.8c0,0.1-9.5,0.3-21.1,0.3s-21.1-0.1-21.1-0.3s9.5-0.3,21.1-0.3S173.1,251.7,173.1,251.8z"/>
		<path d="M174.8,261.6c0,0.1-9.9,0.3-22,0.3s-22-0.1-22-0.3s9.9-0.3,22-0.3S174.8,261.5,174.8,261.6z"/>
		<path d="M175.9,270.6c0,0.2-10.1,0.3-22.6,0.3s-22.6-0.1-22.6-0.3s10.1-0.3,22.6-0.3S175.9,270.5,175.9,270.6z"/>
		<path d="M225.1,280.5c0,0.1-21.3,0.3-47.6,0.3s-47.6-0.1-47.6-0.3s21.3-0.3,47.6-0.3S225.1,280.3,225.1,280.5z"/>
		<path d="M225.4,288.3c0,0.2-21.5,0.3-47.9,0.3s-47.9-0.1-47.9-0.3s21.5-0.3,47.9-0.3S225.4,288.2,225.4,288.3z"/>
		<path d="M174.2,298.1c0,0.2-10.2,0.3-22.9,0.3s-22.9-0.1-22.9-0.3s10.2-0.3,22.9-0.3S174.2,297.9,174.2,298.1z"/>
		<path d="M176.6,307.1c0,0.1-11.1,0.3-24.9,0.3s-24.9-0.1-24.9-0.3s11.2-0.3,24.9-0.3S176.6,306.9,176.6,307.1z"/>
		<path d="M134.2,309.5c-0.2,0-0.3-17.5-0.3-39.1s0.1-39.1,0.3-39.1s0.3,17.5,0.3,39.1S134.3,309.5,134.2,309.5z"/>
		<path d="M146.2,308.5c-0.1,0-0.3-21.4-0.3-47.8s0.1-47.8,0.3-47.8s0.3,21.4,0.3,47.8S146.3,308.5,146.2,308.5z"/>
		<path d="M159.4,307.1c-0.1,0-0.3-20.6-0.3-46s0.1-46,0.3-46s0.3,20.6,0.3,46S159.6,307.1,159.4,307.1z"/>
		<path d="M170.6,309.4c-0.1,0-0.3-16.2-0.3-36.1s0.1-36.1,0.3-36.1s0.3,16.2,0.3,36.1S170.8,309.4,170.6,309.4z"/>
		<path d="M182.4,274c0.1,1.2,0.2,2.3,0.1,3.5c0,2.2,0,5.2-0.1,8.5s-0.2,6.3-0.3,8.5c0,1.2-0.1,2.3-0.3,3.5
			c-0.1-1.2-0.2-2.3-0.1-3.5c0-2.2,0-5.2,0.1-8.5s0.2-6.3,0.3-8.5C182.1,276.4,182.2,275.2,182.4,274z"/>
		<path d="M195,274.5c0.1,1.1,0.2,2.2,0.1,3.3c0,2,0,4.8-0.1,7.9s-0.2,5.9-0.3,7.9c0,1.1-0.1,2.2-0.3,3.3c-0.1-1.1-0.2-2.2-0.1-3.3
			c0-2,0-4.8,0.1-7.9s0.2-5.9,0.3-7.9C194.7,276.7,194.8,275.6,195,274.5z"/>
		<path d="M207.5,274.2c0.1,1.1,0.2,2.1,0.1,3.2c0,2,0,4.7-0.1,7.7s-0.2,5.7-0.3,7.7c0,1.1-0.1,2.1-0.3,3.2
			c-0.1-1.1-0.2-2.1-0.1-3.2c0-2,0-4.7,0.1-7.7s0.2-5.7,0.3-7.7C207.3,276.4,207.3,275.3,207.5,274.2z"/>
		<path d="M220.1,273.9c0.1,1,0.2,2.1,0.1,3.1c0,1.9,0,4.5-0.1,7.5s-0.2,5.5-0.3,7.5c0,1-0.1,2.1-0.3,3.1c-0.1-1-0.2-2.1-0.1-3.1
			c0-1.9,0-4.5,0.1-7.5s0.2-5.6,0.3-7.5C219.8,275.9,219.9,274.9,220.1,273.9z"/>
		<path d="M171.9,278.6c0.9-2.2,2.6-4.1,4.7-5.2c-0.7,0.9-1.5,1.8-2.4,2.6C173.5,276.9,172.7,277.7,171.9,278.6z"/>
		<path d="M174.8,278.8c-0.4-2,0.3-4.2,2-5.5c0.1,0.1-0.7,1.1-1.3,2.6S175,278.8,174.8,278.8z"/>
		<path d="M226,293.9c-0.6-3.2-0.9-6.4-1.1-9.6c-0.4-3.2-0.6-6.4-0.6-9.6c0.6,3.2,1,6.4,1.1,9.6C225.8,287.5,226,290.7,226,293.9z"
			/>
		<path d="M226.6,278.5c0,0.1-0.3,0.3-0.3,0.8c0,0.3,0.1,0.5,0.2,0.7c0.2,0.2,0.6,0.3,0.8,0.1c0.3-0.1,0.5-0.4,0.5-0.7
			c0-0.3-0.2-0.5-0.4-0.7c-0.4-0.3-0.8-0.2-0.8-0.3s0.4-0.4,1,0c0.4,0.2,0.6,0.6,0.7,1c0,0.5-0.3,1-0.8,1.2
			c-0.5,0.2-1.1,0.1-1.4-0.3c-0.3-0.3-0.4-0.7-0.2-1.1C226.1,278.5,226.6,278.4,226.6,278.5z"/>
		<path d="M176.2,274h0.2l0.7,0.1c0.6,0.1,1.6,0.1,2.9,0.2c2.5,0.1,6.2,0.1,10.9,0.1c9.4-0.1,22.9-0.4,39-1h0.2v0.2
			c0.3,6.2,0.7,13,1,20.2v0.2H231c-2.6,0.5-5.1,0.7-7.8,1l-8.1,0.7c-5.5,0.5-11.1,0.9-16.9,1.3l-21.1,1.4l0,0
			c-6.1-0.4-12.1-2.6-16.2-6.6c-2-1.9-3.7-4.3-4.7-6.9c-1-2.5-1.8-5-2.4-7.6c-2.5-10-4-19.1-5.2-26.7c-0.6-3.8-1.1-7.2-1.5-10.2
			c-0.5-2.5-0.8-5.1-0.9-7.7c-0.1-1.6,0.3-3.3,1-4.7c0.3-0.5,0.6-0.9,1-1.3c-0.4,0.4-0.7,0.9-0.9,1.4c-0.7,1.5-1,3.1-0.9,4.7
			c0.2,2.6,0.5,5.1,1,7.6c0.5,3,1,6.4,1.6,10.2c1.3,7.5,2.9,16.6,5.4,26.6c0.6,2.6,1.4,5.1,2.4,7.5c1,2.6,2.6,4.9,4.6,6.8
			c4,3.9,9.9,6.1,15.9,6.5l0,0l21.1-1.4l16.9-1.3l8.1-0.7c2.6-0.3,5.3-0.5,7.7-0.9l-0.2,0.3c-0.3-7.1-0.7-14-1-20.2l0.2,0.2
			c-16.1,0.6-29.6,0.9-39,0.9c-4.7,0-8.4-0.1-10.9-0.2c-1.3-0.1-2.2-0.1-2.9-0.2l-0.7-0.1C176.4,274,176.3,274,176.2,274z"/>
		<path d="M176.2,274c-0.2-0.5-0.4-1-0.5-1.6c-0.3-1-0.7-2.5-1.2-4.3c-1-3.7-2.1-8.8-3.4-14.4s-2.4-10.8-3.3-14.4l-1-4.4
			c-0.2-0.5-0.3-1.1-0.3-1.6c0.2,0.5,0.4,1,0.5,1.6c0.3,1,0.7,2.5,1.2,4.3c1,3.7,2.2,8.8,3.5,14.4c1.3,5.6,2.3,10.7,3.2,14.4
			c0.4,1.8,0.7,3.2,1,4.4C176,272.9,176.1,273.5,176.2,274z"/>
		<path d="M166.4,215.8c0,0.4,0,0.7-0.1,1.1c-0.1,0.7-0.3,1.7-0.5,3c-0.1,0.7-0.2,1.4-0.4,2.1c-0.1,0.5-0.5,0.8-0.9,1
			c-0.4,0.1-0.9,0.1-1.3,0c-1.6-0.3-3.4-0.8-5.3-1.3c-3.8-1-7.1-2.1-9.5-2.9l-2.9-0.9c-0.3-0.1-0.7-0.2-1-0.4c0.4,0,0.7,0.1,1.1,0.2
			c0.7,0.2,1.7,0.4,2.9,0.7c2.5,0.6,5.8,1.7,9.6,2.7c1.9,0.5,3.6,1,5.3,1.3c0.4,0.1,0.7,0.1,1.1,0.1c0.3-0.1,0.5-0.4,0.6-0.7
			c0.2-0.6,0.3-1.4,0.5-2c0.3-1.2,0.5-2.2,0.6-2.9C166.2,216.6,166.3,216.2,166.4,215.8z"/>
		<polygon points="148.9,354.2 155.9,449.1 158.8,448.4 157.7,356.2 		"/>
		<polygon points="119.3,357.5 98.1,449 101.9,449 132.3,357.5 		"/>
		<polygon points="175.4,357.5 204.4,449 207.5,449 184.5,357.5 		"/>
		<polygon points="179.3,363.7 114.4,406.1 114.4,408.4 181.1,363.7 		"/>
		<polygon points="124.2,363.7 194.6,411 194.6,407.4 126.3,361.6 		"/>
		<path class="st5" d="M109.6,359.1l83.6-1.5c3-0.1,5.3-2.5,5.2-5.4c0-0.2,0-0.4,0-0.6l0,0c-0.3-2.7-2.6-4.8-5.4-4.7l-84.8,1.4
			L109.6,359.1z"/>
		<g class="st9">
			<path d="M109.6,359.1l83.6-1.5c3-0.1,5.3-2.5,5.2-5.4c0-0.2,0-0.4,0-0.6l0,0c-0.3-2.7-2.6-4.8-5.4-4.7l-84.8,1.4L109.6,359.1z"/>
		</g>
		<path class="st5" d="M101.1,294.5l8.4,64.6l65.9-1.6l-0.2-39.3c0.1-6.1-4.8-11.1-10.8-11.2c-0.4,0-0.8,0-1.2,0l-50.3,4.5
			l-6.6-68.5l-6.7-0.6c-2.6-0.2-4.8,1.8-5,4.3c0,0.3,0,0.7,0,1L101.1,294.5z"/>
	</g>
</g>
</svg>
